<svg width="24" height="20" viewBox="0 0 24 20" fill="none" xmlns="http://www.w3.org/2000/svg">
<g id="Icons/back">
<mask id="mask0_57_604" style="mask-type:alpha" maskUnits="userSpaceOnUse" x="3" y="0" width="18" height="16">
<path id="Icons/back_2" fill-rule="evenodd" clip-rule="evenodd" d="M11.7072 1.70718C12.0977 1.31656 12.0977 0.683502 11.7072 0.292877C11.3166 -0.0976257 10.6835 -0.0976257 10.2929 0.292877L3.29288 7.29288C2.90237 7.6835 2.90237 8.31656 3.29288 8.70718L10.2929 15.7072C10.6835 16.0977 11.3166 16.0977 11.7072 15.7072C12.0977 15.3166 12.0977 14.6835 11.7072 14.2929L6.41422 9.00003H20C20.5523 9.00003 21 8.55228 21 8.00003C21 7.44778 20.5523 7.00003 20 7.00003H6.41422L11.7072 1.70718Z" fill="black"/>
</mask>
<g mask="url(#mask0_57_604)">
<g id="Swatches/Primary/White">
<g id="Swatches/Primary/White_2">
<rect id="Rectangle" y="-4" width="24" height="24" fill="white"/>
</g>
</g>
</g>
</g>
</svg>
