<svg width="21" height="21" viewBox="0 0 21 21" fill="none" xmlns="http://www.w3.org/2000/svg">
<g clip-path="url(#clip0_20196_510)">
<path d="M0.153105 9.96995C0.144395 9.98349 0.136934 9.99764 0.128965 10.0116C0.121699 10.0243 0.114043 10.0368 0.107402 10.05C0.100137 10.0643 0.0938867 10.0791 0.0873242 10.0937C0.0811914 10.1073 0.0747852 10.1207 0.0691992 10.1346C0.0635742 10.1489 0.0590039 10.1636 0.054043 10.1781C0.0490039 10.193 0.0435742 10.2076 0.0391992 10.2228C0.0350195 10.2375 0.0318555 10.2523 0.0283008 10.2673C0.024668 10.2826 0.0205273 10.2978 0.0175586 10.3134C0.0142773 10.3307 0.0123633 10.3482 0.00998047 10.3657C0.00814453 10.3791 0.00572266 10.3922 0.00439453 10.4057C-0.00146484 10.4685 -0.00146484 10.5317 0.00439453 10.5944C0.00572266 10.608 0.00814453 10.6211 0.00998047 10.6344C0.0123633 10.6519 0.0142773 10.6694 0.0175586 10.6867C0.0205273 10.7024 0.0245898 10.7175 0.0283008 10.7329C0.0318945 10.7477 0.0349805 10.7627 0.0391992 10.7774C0.0435742 10.7925 0.0490039 10.8072 0.054043 10.8221C0.0590039 10.8366 0.0635742 10.8512 0.0691992 10.8655C0.0747852 10.8795 0.0811914 10.8928 0.0873242 10.9065C0.0938867 10.921 0.100098 10.9358 0.107402 10.9501C0.114082 10.9633 0.121699 10.9757 0.128965 10.9885C0.136895 11.0024 0.144355 11.0166 0.153105 11.0301C0.162246 11.0445 0.172363 11.058 0.182207 11.0718C0.190215 11.0829 0.197559 11.0943 0.205957 11.1051C0.225059 11.1295 0.245098 11.153 0.266426 11.1753L4.81174 15.9479C4.98924 16.1342 5.22193 16.2275 5.45451 16.2275C5.68717 16.2275 5.91986 16.1343 6.09729 15.9479C6.45232 15.5751 6.45232 14.9707 6.09729 14.598L3.10369 11.4547H19.0909C19.5929 11.4547 20 11.0273 20 10.5001C20 9.97295 19.5929 9.54557 19.0909 9.54557H3.10377L6.09736 6.40229C6.4524 6.0295 6.4524 5.42514 6.09736 5.05239C5.7424 4.6796 5.16674 4.6796 4.81174 5.05239L0.266426 9.8248C0.245098 9.84707 0.22502 9.87057 0.205957 9.89498C0.19752 9.90581 0.190215 9.91717 0.182207 9.92832C0.172363 9.94206 0.162246 9.95556 0.153105 9.96995Z" fill="white"/>
</g>
<g clip-path="url(#clip1_20196_510)">
<path d="M1.15311 9.96995C1.14439 9.98349 1.13693 9.99764 1.12896 10.0116C1.1217 10.0243 1.11404 10.0368 1.1074 10.05C1.10014 10.0643 1.09389 10.0791 1.08732 10.0937C1.08119 10.1073 1.07479 10.1207 1.0692 10.1346C1.06357 10.1489 1.059 10.1636 1.05404 10.1781C1.049 10.193 1.04357 10.2076 1.0392 10.2228C1.03502 10.2375 1.03186 10.2523 1.0283 10.2673C1.02467 10.2826 1.02053 10.2978 1.01756 10.3134C1.01428 10.3307 1.01236 10.3482 1.00998 10.3657C1.00814 10.3791 1.00572 10.3922 1.00439 10.4057C0.998535 10.4685 0.998535 10.5317 1.00439 10.5944C1.00572 10.608 1.00814 10.6211 1.00998 10.6344C1.01236 10.6519 1.01428 10.6694 1.01756 10.6867C1.02053 10.7024 1.02459 10.7175 1.0283 10.7329C1.03189 10.7477 1.03498 10.7627 1.0392 10.7774C1.04357 10.7925 1.049 10.8072 1.05404 10.8221C1.059 10.8366 1.06357 10.8512 1.0692 10.8655C1.07479 10.8795 1.08119 10.8928 1.08732 10.9065C1.09389 10.921 1.1001 10.9358 1.1074 10.9501C1.11408 10.9633 1.1217 10.9757 1.12896 10.9885C1.13689 11.0024 1.14436 11.0166 1.15311 11.0301C1.16225 11.0445 1.17236 11.058 1.18221 11.0718C1.19021 11.0829 1.19756 11.0943 1.20596 11.1051C1.22506 11.1295 1.2451 11.153 1.26643 11.1753L5 16C5.17107 16.2275 5.62922 16.2275 6.45451 16.2275C6.68717 16.2275 6.91986 16.1343 7.09729 15.9479C7.45232 15.5751 7.45232 14.9707 7.09729 14.598L4.10369 11.4547H20.0909C20.5929 11.4547 21 11.0273 21 10.5001C21 9.97295 20.5929 9.54557 20.0909 9.54557H4.10377L7.09736 6.40229C7.4524 6.0295 7.4524 5.42514 7.09736 5.05239C6.7424 4.6796 5.355 4.62721 5 5L1.26643 9.8248C1.2451 9.84707 1.22502 9.87057 1.20596 9.89498C1.19752 9.90581 1.19021 9.91717 1.18221 9.92832C1.17236 9.94206 1.16225 9.95556 1.15311 9.96995Z" fill="white"/>
</g>
<defs>
<clipPath id="clip0_20196_510">
<rect width="20" height="21" fill="white"/>
</clipPath>
<clipPath id="clip1_20196_510">
<rect width="20" height="21" fill="white" transform="translate(1)"/>
</clipPath>
</defs>
</svg>
