<svg width="20" height="20" viewBox="0 0 20 20" fill="none" xmlns="http://www.w3.org/2000/svg">
<g clip-path="url(#clip0_20195_489)">
<path d="M0.153105 9.4952C0.144395 9.50809 0.136934 9.52156 0.128965 9.53484C0.121699 9.54695 0.114043 9.55883 0.107402 9.57141C0.100137 9.58504 0.0938867 9.5991 0.0873242 9.61305C0.0811914 9.62602 0.0747852 9.63875 0.0691992 9.65203C0.0635742 9.66566 0.0590039 9.67961 0.054043 9.69344C0.0490039 9.70758 0.0435742 9.72148 0.0391992 9.73598C0.0350195 9.74996 0.0318555 9.76414 0.0283008 9.77836C0.024668 9.79297 0.0205273 9.80738 0.0175586 9.8223C0.0142773 9.83879 0.0123633 9.85547 0.00998047 9.87211C0.00814453 9.88484 0.00572266 9.8973 0.00439453 9.91023C-0.00146484 9.97 -0.00146484 10.0302 0.00439453 10.0899C0.00572266 10.1028 0.00814453 10.1153 0.00998047 10.128C0.0123633 10.1446 0.0142773 10.1614 0.0175586 10.1779C0.0205273 10.1928 0.0245898 10.2071 0.0283008 10.2218C0.0318945 10.2359 0.0349805 10.2502 0.0391992 10.2642C0.0435742 10.2786 0.0490039 10.2925 0.054043 10.3067C0.0590039 10.3205 0.0635742 10.3345 0.0691992 10.3481C0.0747852 10.3614 0.0811914 10.3741 0.0873242 10.3871C0.0938867 10.401 0.100098 10.415 0.107402 10.4287C0.114082 10.4412 0.121699 10.4531 0.128965 10.4652C0.136895 10.4785 0.144355 10.492 0.153105 10.5049C0.162246 10.5186 0.172363 10.5314 0.182207 10.5445C0.190215 10.5552 0.197559 10.566 0.205957 10.5763C0.225059 10.5996 0.245098 10.6219 0.266426 10.6431L4.81174 15.1884C4.98924 15.3659 5.22193 15.4547 5.45451 15.4547C5.68717 15.4547 5.91986 15.366 6.09729 15.1884C6.45232 14.8334 6.45232 14.2578 6.09729 13.9028L3.10369 10.9092H19.0909C19.5929 10.9092 20 10.5022 20 10.0001C20 9.49805 19.5929 9.09102 19.0909 9.09102H3.10377L6.09736 6.09742C6.4524 5.74238 6.4524 5.1668 6.09736 4.8118C5.7424 4.45676 5.16674 4.45676 4.81174 4.8118L0.266426 9.35695C0.245098 9.37816 0.22502 9.40055 0.205957 9.42379C0.19752 9.4341 0.190215 9.44492 0.182207 9.45555C0.172363 9.46863 0.162246 9.48148 0.153105 9.4952Z" fill="white"/>
</g>
<defs>
<clipPath id="clip0_20195_489">
<rect width="20" height="20" fill="white"/>
</clipPath>
</defs>
</svg>
