<svg width="16" height="24" viewBox="0 0 16 24" fill="none" xmlns="http://www.w3.org/2000/svg">
<path d="M0.304184 17.0284C0.304184 15.2212 1.00131 13.514 2.2672 12.2213L3.27585 13.209C2.26993 14.2362 1.71595 15.5927 1.71595 17.0284V22.5882H14.2839V17.0284C14.2839 15.5925 13.7301 14.236 12.7243 13.2088L13.733 12.2212C14.9987 13.5137 15.6957 15.221 15.6957 17.0284V24H0.304184V17.0284ZM1.46033 7.06918C1.46033 5.49167 1.58908 3.68932 2.54447 2.28273C3.58757 0.746729 5.37214 0 8 0C10.6279 0 12.4124 0.746729 13.4556 2.28273C14.4109 3.68932 14.5398 5.49167 14.5398 7.06918C14.5398 10.6753 11.606 13.6091 8.00009 13.6091C4.39416 13.6091 1.46033 10.6754 1.46033 7.06918ZM2.87209 7.06918C2.87209 9.89685 5.17242 12.1974 8 12.1974C10.8276 12.1974 13.1279 9.89685 13.1279 7.06918C13.1279 5.70626 13.028 4.16602 12.2876 3.07586C11.5272 1.95614 10.1247 1.41176 8 1.41176C5.87529 1.41176 4.47275 1.95614 3.71228 3.07586C2.97185 4.16612 2.87209 5.70626 2.87209 7.06918Z" fill="#72A8BC"/>
</svg>
