<svg width="24" height="24" viewBox="0 0 24 24" fill="none" xmlns="http://www.w3.org/2000/svg">
<path d="M12.0016 12.4967C8.55558 12.4967 5.75319 9.69435 5.75319 6.24837C5.75319 2.80239 8.55558 0 12.0047 0C15.4507 0 18.2531 2.80239 18.2531 6.24837C18.2499 9.69435 15.4475 12.4967 12.0016 12.4967ZM12.0016 0.618589C8.89612 0.618589 6.36865 3.14293 6.36865 6.24837C6.36865 9.35381 8.89612 11.8813 12.0016 11.8813C15.107 11.8813 17.6313 9.35381 17.6313 6.24837C17.6313 3.14293 15.107 0.618589 12.0016 0.618589Z" fill="#72A8BC"/>
<path d="M23.333 24H0.685753L0.667007 20.201C0.667007 18.8794 1.10127 17.6391 1.92293 16.6113C2.7196 15.6147 3.83806 14.9024 5.07211 14.6024L5.10648 14.5931H5.14397L18.906 14.5556L18.9466 14.5681C20.1494 14.8961 21.2523 15.6303 22.0521 16.6332C22.8768 17.6673 23.3299 18.9326 23.3299 20.1979L23.333 24ZM1.30122 23.3845H22.7144V20.201C22.7144 19.0731 22.3082 17.9453 21.5709 17.0206C20.8586 16.1302 19.887 15.4741 18.8248 15.1742L5.18455 15.2116C4.09733 15.4834 3.11009 16.1145 2.40715 16.9956C1.67296 17.914 1.28557 19.02 1.28557 20.1979L1.30122 23.3845Z" fill="#72A8BC"/>
</svg>
